<?xml version="1.0" encoding="utf-8"?>
<!-- Generator: Adobe Illustrator 28.1.0, SVG Export Plug-In . SVG Version: 6.00 Build 0)  -->
<svg version="1.1" xmlns="http://www.w3.org/2000/svg" xmlns:xlink="http://www.w3.org/1999/xlink" x="0px" y="0px"
	 viewBox="0 0 27.35 32" style="enable-background:new 0 0 27.35 32;" xml:space="preserve">
<style type="text/css">
	.st0{display:none;}
	.st1{display:inline;}
	.st2{fill:#231F20;}
	.st3{fill:#FFFFFF;}
	.st4{fill:#C5C5C5;}
	.st5{display:inline;fill:#C5C5C5;}
</style>
<g id="add-user-2" class="st0">
	<g id="Layer_2_00000129175847185884908460000001192951033965964958_" class="st1">
		<g id="Layer_1-2">
			<g id="Arrow_Left">
				<circle class="st2" cx="13.92" cy="5.55" r="5.15"/>
				<path class="st2" d="M21.89,21.57H5.96c-0.66,0-1.2-0.54-1.2-1.2c0-0.05,0-0.1,0.01-0.15c0.61-4.91,4.48-8.7,9.16-8.7
					s8.55,3.79,9.16,8.7c0.08,0.66-0.39,1.26-1.05,1.34C21.99,21.57,21.94,21.58,21.89,21.57z"/>
				<path class="st3" d="M20.83,24.67c-2.77,0-5.01-2.24-5.01-5.01s2.24-5.01,5.01-5.01s5.01,2.24,5.01,5.01
					C25.83,22.43,23.59,24.67,20.83,24.67L20.83,24.67z"/>
				<path class="st2" d="M21.59,19.69l1.09-1.09c0.48-0.48,0.48-1.26,0-1.75c-0.48-0.48-1.26-0.48-1.75,0l-1.96,1.96
					c-0.48,0.48-0.48,1.26,0,1.74c0,0,0,0,0,0l1.9,1.9c0.48,0.48,1.26,0.48,1.75,0c0.48-0.48,0.48-1.26,0-1.75l0,0L21.59,19.69z"/>
				<path class="st2" d="M22.22,22.07c-0.26,0.26-0.69,0.26-0.95,0c0,0,0,0,0,0l-1.9-1.91c-0.26-0.26-0.26-0.69,0-0.95l1.96-1.96
					c0.26-0.26,0.69-0.26,0.95,0c0.26,0.26,0.26,0.69,0,0.95l0,0l-1.35,1.35c-0.07,0.07-0.07,0.19,0,0.27l1.29,1.29
					C22.49,21.38,22.49,21.81,22.22,22.07C22.23,22.07,22.22,22.07,22.22,22.07L22.22,22.07z"/>
			</g>
		</g>
	</g>
</g>
<g id="add-user-2_copy">
	<g id="Layer_2_00000031922125451053206170000000938647538730579866_">
		<g id="Layer_1-2_00000039816841494608971540000016944023449031316910_">
			<g id="Arrow_Left_00000011018168075063855260000002811753121167166911_">
				<circle class="st4" cx="13.92" cy="5.55" r="5.15"/>
				<g>
					<path class="st4" d="M15.82,17.82c0-2.11,1.31-3.91,3.16-4.65c-1.45-1.04-3.19-1.65-5.06-1.65c-4.68,0-8.55,3.79-9.16,8.7
						c-0.01,0.05-0.01,0.1-0.01,0.15c0,0.66,0.54,1.2,1.2,1.2h11.59C16.5,20.66,15.82,19.32,15.82,17.82z"/>
				</g>
			</g>
		</g>
	</g>
</g>
<g id="Layer_4_copy_2" class="st0">
	<g class="st1">
		<path class="st4" d="M10.16,31.14H3.75v-0.61h6.41V31.14z M9.37,27.66h-4.1V29H4.53v-1.94h4.11v-0.98H4.52v-0.61h4.85V27.66z
			 M9.53,29.29h-5v-0.61h5V29.29z M7.3,30.79H6.57v-1.71H7.3V30.79z"/>
		<path class="st4" d="M17.05,30.98h-6.38v-0.61h6.38V30.98z M15.87,26.3h-4.52v-0.61h4.52V26.3z M16.2,27.5
			c-0.01,0.3-0.03,0.64-0.07,1.04s-0.1,0.82-0.18,1.29l-0.75-0.07c0.09-0.44,0.15-0.85,0.19-1.23s0.06-0.73,0.07-1.03
			s0.01-0.65,0.01-1.05v-0.75h0.73v0.75C16.21,26.85,16.21,27.2,16.2,27.5z"/>
		<path class="st4" d="M20.54,25.68c0.29,0.15,0.51,0.35,0.67,0.62s0.24,0.56,0.24,0.9c0,0.34-0.08,0.64-0.24,0.9
			s-0.38,0.47-0.67,0.62s-0.6,0.22-0.95,0.22s-0.67-0.07-0.95-0.22s-0.51-0.35-0.67-0.62s-0.25-0.56-0.25-0.9
			c0-0.33,0.08-0.63,0.25-0.9s0.39-0.47,0.67-0.62s0.6-0.22,0.95-0.22S20.25,25.53,20.54,25.68z M19,26.24
			c-0.17,0.09-0.31,0.22-0.41,0.38s-0.15,0.35-0.15,0.57s0.05,0.4,0.15,0.57s0.23,0.3,0.41,0.39s0.37,0.14,0.58,0.14
			s0.41-0.05,0.58-0.14s0.31-0.22,0.41-0.39s0.15-0.36,0.15-0.57s-0.05-0.4-0.15-0.57s-0.23-0.29-0.41-0.38s-0.36-0.14-0.58-0.14
			S19.18,26.15,19,26.24z M19.55,31.45h-0.74v-1.89h0.74V31.45z M23.59,31.84h-4.79v-0.61h4.79V31.84z M23.38,30.07h-0.74v-5.09
			h0.74V30.07z"/>
	</g>
</g>
<g id="Layer_4_copy">
	<g>
		<path class="st4" d="M0.75,30.07c0.81,0,1.56-0.02,2.23-0.05s1.32-0.08,1.92-0.16l0.05,0.56c-0.69,0.11-1.4,0.19-2.14,0.22
			S1.29,30.7,0.44,30.7l-0.11-0.62H0.75z M4.75,26.41H0.48v-0.59h4.28V26.41z M3.5,26.93c0.26,0.11,0.46,0.26,0.61,0.46
			s0.22,0.42,0.22,0.69c0,0.25-0.07,0.48-0.22,0.67S3.76,29.09,3.5,29.2s-0.56,0.16-0.9,0.16c-0.33,0-0.63-0.05-0.88-0.16
			s-0.46-0.26-0.6-0.46s-0.21-0.42-0.21-0.68c0-0.26,0.07-0.49,0.21-0.69s0.34-0.35,0.6-0.46s0.55-0.16,0.88-0.16
			C2.95,26.77,3.25,26.82,3.5,26.93z M2.09,27.43c-0.15,0.06-0.27,0.15-0.36,0.26S1.6,27.93,1.6,28.07c0,0.14,0.04,0.27,0.13,0.38
			s0.21,0.19,0.36,0.25s0.33,0.09,0.52,0.09c0.2,0,0.37-0.03,0.53-0.08s0.27-0.14,0.36-0.25s0.12-0.24,0.12-0.38
			c0-0.15-0.04-0.28-0.12-0.39s-0.2-0.2-0.36-0.26s-0.33-0.09-0.53-0.09C2.42,27.34,2.25,27.37,2.09,27.43z M3,26.14H2.25v-1.15H3
			V26.14z M2.99,30.34H2.25v-1.15h0.74V30.34z M6.08,31.98H5.34v-7h0.74V31.98z"/>
		<path class="st4" d="M9.67,28.14c0.71-0.02,1.39-0.08,2.04-0.16l0.04,0.54c-0.68,0.11-1.4,0.19-2.15,0.22
			c-0.75,0.04-1.53,0.05-2.33,0.05l-0.1-0.59C8.13,28.18,8.97,28.16,9.67,28.14z M10.36,25.4c0.26,0.1,0.47,0.25,0.62,0.44
			s0.22,0.4,0.22,0.64c0,0.25-0.07,0.46-0.22,0.64s-0.35,0.32-0.62,0.43s-0.56,0.15-0.9,0.15c-0.34,0-0.64-0.05-0.91-0.15
			s-0.47-0.24-0.62-0.43s-0.22-0.4-0.22-0.64c0-0.24,0.07-0.46,0.22-0.65s0.35-0.33,0.62-0.44s0.57-0.15,0.91-0.15
			C9.8,25.25,10.1,25.3,10.36,25.4z M8.89,31.4H8.14v-1.62h0.75V31.4z M13.2,31.84H8.14v-0.61h5.06V31.84z M8.92,25.89
			c-0.16,0.06-0.28,0.14-0.36,0.24s-0.13,0.22-0.13,0.36s0.04,0.25,0.13,0.36s0.21,0.18,0.36,0.24s0.34,0.08,0.54,0.08
			c0.2,0,0.38-0.03,0.53-0.08s0.28-0.14,0.37-0.24s0.13-0.22,0.13-0.36s-0.04-0.25-0.13-0.36s-0.21-0.18-0.37-0.24
			s-0.33-0.08-0.53-0.08C9.26,25.8,9.08,25.83,8.92,25.89z M9.91,30.07H9.16v-1.55h0.75V30.07z M12.47,29.63h-1.6V29.1h1.6V29.63z
			 M13.03,30.29h-0.74v-5.31h0.74V30.29z"/>
		<path class="st4" d="M17.41,27.68c-0.22,0.61-0.56,1.17-1.04,1.68s-1.09,0.95-1.83,1.32l-0.41-0.58c0.64-0.32,1.18-0.7,1.61-1.12
			s0.75-0.9,0.96-1.42s0.32-1.1,0.32-1.72v-0.13h0.73C17.74,26.42,17.63,27.07,17.41,27.68z M17.39,26.34h-2.92v-0.62h2.92V26.34z
			 M19.57,31.97h-0.74v-7h0.74V31.97z M20.66,28.39h-1.28v-0.62h1.28V28.39z"/>
		<path class="st4" d="M24,25.5c0.28,0.14,0.5,0.33,0.67,0.58s0.24,0.53,0.24,0.85c0,0.31-0.08,0.59-0.24,0.83S24.28,28.2,24,28.34
			s-0.6,0.21-0.96,0.21s-0.67-0.07-0.96-0.21s-0.5-0.33-0.67-0.58s-0.24-0.52-0.24-0.83c0-0.32,0.08-0.6,0.24-0.85
			s0.38-0.44,0.67-0.58s0.6-0.2,0.96-0.2C23.4,25.3,23.71,25.37,24,25.5z M22.45,26.05c-0.17,0.09-0.31,0.21-0.4,0.36
			s-0.14,0.33-0.14,0.53c0,0.2,0.05,0.37,0.14,0.52s0.23,0.27,0.4,0.36s0.37,0.13,0.59,0.13s0.41-0.04,0.59-0.13s0.31-0.21,0.4-0.36
			s0.14-0.33,0.14-0.52c0-0.2-0.05-0.37-0.15-0.53s-0.23-0.27-0.4-0.36s-0.37-0.13-0.58-0.12C22.82,25.92,22.63,25.96,22.45,26.05z
			 M22.99,29.86h3.11v-0.78h0.73v2.82h-4.58v-2.82h0.73V29.86z M26.1,31.29v-0.85h-3.11v0.85H26.1z M26.84,28.74H26.1v-3.76h0.74
			V28.74z"/>
	</g>
</g>
<g id="Layer_3" class="st0">
	<path class="st5" d="M24.17,15.14c-0.2-0.2-0.47-0.31-0.76-0.31c-0.29,0-0.56,0.12-0.79,0.35L20.4,17.6l-0.68-0.68
		c-0.2-0.21-0.49-0.33-0.78-0.33c-0.28,0-0.54,0.11-0.74,0.29c-0.21,0.2-0.33,0.46-0.33,0.75c-0.01,0.29,0.1,0.56,0.32,0.79
		l1.48,1.48c0.2,0.2,0.47,0.32,0.76,0.32c0.29,0,0.56-0.12,0.79-0.35l2.94-3.23c0.2-0.2,0.32-0.47,0.32-0.76
		C24.49,15.61,24.37,15.34,24.17,15.14z"/>
</g>
<g id="Layer_2">
	<path class="st4" d="M21.18,20.82c-0.6,0-1-0.4-1-1v-1h-1c-0.6,0-1-0.4-1-1s0.4-1,1-1h1v-1c0-0.6,0.4-1,1-1s1,0.4,1,1v1h1
		c0.6,0,1,0.4,1,1s-0.4,1-1,1h-1v1C22.18,20.42,21.78,20.82,21.18,20.82z"/>
</g>
</svg>
