<?xml version="1.0" encoding="utf-8"?>
<!-- Generator: Adobe Illustrator 28.1.0, SVG Export Plug-In . SVG Version: 6.00 Build 0)  -->
<svg version="1.1" id="Layer_1" xmlns="http://www.w3.org/2000/svg" xmlns:xlink="http://www.w3.org/1999/xlink" x="0px" y="0px"
	 viewBox="0 0 446.45 211.81" style="enable-background:new 0 0 446.45 211.81;" xml:space="preserve">
<style type="text/css">
	.st0{fill:#385BA1;}
</style>
<polygon class="st0" points="232.78,97.19 210.2,97.19 210.2,119.6 198.41,119.6 198.41,64.79 235.62,64.79 235.62,73.92 
	210.2,73.92 210.2,88.09 232.78,88.09 "/>
<rect x="240.6" y="64.79" class="st0" width="12.39" height="54.8"/>
<polygon class="st0" points="295,97.19 273.91,97.19 273.91,119.6 262.92,119.6 262.92,64.79 297.63,64.79 297.63,73.92 
	273.91,73.92 273.91,88.09 295,88.09 "/>
<polygon class="st0" points="337.15,97.19 316.06,97.19 316.06,119.6 305.07,119.6 305.07,64.79 339.79,64.79 339.79,73.92 
	316.06,73.92 316.06,88.09 337.15,88.09 "/>
<path class="st0" d="M209.77,168.39h10.13c2.98,0,5.29-0.72,6.87-2.12c1.57-1.4,2.35-3.41,2.35-6.04c0-2.66-0.77-4.87-2.38-6.5
	c-1.6-1.63-3.78-2.52-6.58-2.55h-10.42L209.77,168.39L209.77,168.39z M209.77,177.52v19.32h-11.33v-54.8h21.46
	c4.12,0,7.78,0.74,10.9,2.23c3.15,1.52,5.55,3.66,7.24,6.44s2.52,5.92,2.52,9.47c0,5.38-1.86,9.62-5.55,12.71
	c-3.69,3.09-8.81,4.64-15.34,4.64H209.77z"/>
<path class="st0" d="M256.14,188.45c1.55,0,2.98-0.34,4.26-1.09c1.32-0.72,2.26-1.69,2.89-2.89v-7.04h-3.89
	c-5.24,0-8.01,1.89-8.36,5.67l-0.06,0.63c0,1.37,0.46,2.49,1.37,3.38C253.27,188.02,254.53,188.45,256.14,188.45z M264.78,196.07
	c-0.49-0.97-0.83-2.2-1.03-3.66c-2.55,2.95-5.84,4.44-9.87,4.44c-3.81,0-6.98-1.17-9.5-3.46c-2.52-2.32-3.78-5.24-3.78-8.76
	c0-4.32,1.55-7.67,4.61-9.96c3.06-2.32,7.5-3.49,13.31-3.52h4.78v-2.35c0-1.89-0.46-3.38-1.37-4.52c-0.92-1.14-2.4-1.69-4.41-1.69
	c-1.77,0-3.15,0.43-4.12,1.32c-1,0.89-1.49,2.09-1.49,3.61h-10.45c0-2.38,0.72-4.55,2.12-6.58c1.4-2.03,3.35-3.58,5.92-4.72
	c2.55-1.14,5.41-1.72,8.59-1.72c4.81,0,8.64,1.26,11.48,3.81c2.83,2.52,4.26,6.1,4.26,10.67v17.71c0.03,3.86,0.54,6.81,1.55,8.79
	v0.63h-10.59V196.07z"/>
<path class="st0" d="M302.44,165.64c-1.43-0.2-2.72-0.31-3.78-0.31c-3.98,0-6.58,1.4-7.84,4.26v27.22h-10.56v-41.55h9.96l0.29,4.98
	c2.12-3.81,5.07-5.75,8.79-5.75c1.17,0,2.26,0.14,3.26,0.49L302.44,165.64z"/>
<polygon class="st0" points="322.13,180.61 318.27,184.47 318.27,196.78 307.56,196.78 307.56,139.52 318.27,139.52 318.27,171.25 
	320.36,168.59 330.63,156.49 343.48,156.49 329,173.31 344.77,196.84 332.46,196.84 "/>
<path class="st0" d="M358.96,196.84h-11.1v-41.01h11.1V196.84z M347.23,145.18c0-1.66,0.57-3,1.66-4.06s2.6-1.6,4.52-1.6
	c1.89,0,3.38,0.54,4.52,1.6s1.69,2.4,1.69,4.06c0,1.69-0.57,3.03-1.69,4.09c-1.12,1.06-2.63,1.6-4.52,1.6
	c-1.86,0-3.35-0.54-4.52-1.6C347.8,148.22,347.23,146.87,347.23,145.18z"/>
<path class="st0" d="M377.19,155.26l0.34,4.81c2.86-3.69,6.73-5.58,11.56-5.58c4.26,0,7.44,1.29,9.5,3.89
	c2.09,2.6,3.15,6.47,3.21,11.62v26.87h-10.76v-26.62c0-2.38-0.49-4.06-1.49-5.12c-1-1.06-2.63-1.6-4.95-1.6
	c-3.03,0-5.29,1.35-6.78,3.98v29.33h-10.73v-41.58H377.19z"/>
<path class="st0" d="M420.12,176.03c0,3.69,0.74,6.55,2.2,8.67c1.49,2.09,3.49,3.15,6.1,3.15c3.29,0,5.7-1.23,7.1-3.72v-17.11
	c-1.46-2.49-3.81-3.72-7.04-3.72c-2.63,0-4.66,1.06-6.15,3.18C420.86,168.62,420.12,171.77,420.12,176.03z M409.24,175.2
	c0-6.24,1.49-11.22,4.46-15.05c2.98-3.81,6.98-5.7,12.02-5.7c4.46,0,7.93,1.55,10.42,4.58l0.46-3.81h9.84v39.24
	c0,3.55-0.8,6.64-2.4,9.27c-1.6,2.63-3.89,4.61-6.84,6.01c-2.92,1.37-6.38,2.06-10.3,2.06c-2.98,0-5.9-0.6-8.73-1.77
	s-4.98-2.72-6.41-4.61l4.81-6.61c2.69,3.03,5.98,4.55,9.84,4.55c2.89,0,5.12-0.77,6.73-2.32s2.4-3.72,2.4-6.55v-2.15
	c-2.52,2.8-5.81,4.24-9.9,4.24c-4.89,0-8.84-1.92-11.88-5.72c-3.03-3.81-4.52-8.87-4.52-15.17L409.24,175.2L409.24,175.2z"/>
<path class="st0" d="M78.13,124.81c0-7.38,5.9-13.34,13.16-13.34h62.3V74.35H0V174c0,15.68,12.53,28.39,27.96,28.39h97.62
	c15.45,0,27.96-12.71,27.96-28.39v-35.86h-62.3C84,138.17,78.13,132.19,78.13,124.81z"/>
<path class="st0" d="M153.57,28.39C153.57,12.71,141.03,0,125.61,0H27.99C12.53,0,0.03,12.71,0.03,28.39v19.29H153.6V28.39H153.57z"
	/>
</svg>
