<?xml version="1.0" encoding="utf-8"?>
<!-- Generator: Adobe Illustrator 24.2.0, SVG Export Plug-In . SVG Version: 6.00 Build 0)  -->
<svg version="1.1" id="Layer_1" xmlns="http://www.w3.org/2000/svg" xmlns:xlink="http://www.w3.org/1999/xlink" x="0px" y="0px"
	 viewBox="0 0 446.5 211.8" style="enable-background:new 0 0 446.5 211.8;" xml:space="preserve">
<style type="text/css">
	.st0{fill:#FFFFFF;}
</style>
<polygon class="st0" points="232.8,97.2 210.2,97.2 210.2,119.6 198.4,119.6 198.4,64.8 235.6,64.8 235.6,73.9 210.2,73.9 
	210.2,88.1 232.8,88.1 "/>
<rect x="240.6" y="64.8" class="st0" width="12.4" height="54.8"/>
<polygon class="st0" points="295,97.2 273.9,97.2 273.9,119.6 262.9,119.6 262.9,64.8 297.6,64.8 297.6,73.9 273.9,73.9 273.9,88.1 
	295,88.1 "/>
<polygon class="st0" points="337.1,97.2 316.1,97.2 316.1,119.6 305.1,119.6 305.1,64.8 339.8,64.8 339.8,73.9 316.1,73.9 
	316.1,88.1 337.1,88.1 "/>
<path class="st0" d="M209.8,168.4h10.1c3,0,5.3-0.7,6.9-2.1c1.6-1.4,2.4-3.4,2.4-6c0-2.7-0.8-4.9-2.4-6.5c-1.6-1.6-3.8-2.5-6.6-2.6
	h-10.4L209.8,168.4L209.8,168.4z M209.8,177.5v19.3h-11.3V142h21.5c4.1,0,7.8,0.7,10.9,2.2c3.1,1.5,5.6,3.7,7.2,6.4s2.5,5.9,2.5,9.5
	c0,5.4-1.9,9.6-5.6,12.7c-3.7,3.1-8.8,4.6-15.3,4.6L209.8,177.5L209.8,177.5z"/>
<path class="st0" d="M256.1,188.4c1.5,0,3-0.3,4.3-1.1c1.3-0.7,2.3-1.7,2.9-2.9v-7h-3.9c-5.2,0-8,1.9-8.4,5.7l-0.1,0.6
	c0,1.4,0.5,2.5,1.4,3.4C253.3,188,254.5,188.4,256.1,188.4z M264.8,196.1c-0.5-1-0.8-2.2-1-3.7c-2.5,2.9-5.8,4.4-9.9,4.4
	c-3.8,0-7-1.2-9.5-3.5c-2.5-2.3-3.8-5.2-3.8-8.8c0-4.3,1.6-7.7,4.6-10c3.1-2.3,7.5-3.5,13.3-3.5h4.8v-2.4c0-1.9-0.5-3.4-1.4-4.5
	c-0.9-1.1-2.4-1.7-4.4-1.7c-1.8,0-3.1,0.4-4.1,1.3c-1,0.9-1.5,2.1-1.5,3.6h-10.4c0-2.4,0.7-4.6,2.1-6.6s3.4-3.6,5.9-4.7
	c2.6-1.1,5.4-1.7,8.6-1.7c4.8,0,8.6,1.3,11.5,3.8c2.8,2.5,4.3,6.1,4.3,10.7v17.7c0,3.9,0.5,6.8,1.5,8.8v0.6L264.8,196.1L264.8,196.1
	L264.8,196.1z"/>
<path class="st0" d="M302.4,165.6c-1.4-0.2-2.7-0.3-3.8-0.3c-4,0-6.6,1.4-7.8,4.3v27.2h-10.6v-41.6h10l0.3,5
	c2.1-3.8,5.1-5.8,8.8-5.8c1.2,0,2.3,0.1,3.3,0.5L302.4,165.6z"/>
<polygon class="st0" points="322.1,180.6 318.3,184.5 318.3,196.8 307.6,196.8 307.6,139.5 318.3,139.5 318.3,171.3 320.4,168.6 
	330.6,156.5 343.5,156.5 329,173.3 344.8,196.8 332.5,196.8 "/>
<path class="st0" d="M359,196.8h-11.1v-41H359V196.8z M347.2,145.2c0-1.7,0.6-3,1.7-4.1s2.6-1.6,4.5-1.6c1.9,0,3.4,0.5,4.5,1.6
	s1.7,2.4,1.7,4.1c0,1.7-0.6,3-1.7,4.1s-2.6,1.6-4.5,1.6c-1.9,0-3.4-0.5-4.5-1.6C347.8,148.2,347.2,146.9,347.2,145.2z"/>
<path class="st0" d="M377.2,155.3l0.3,4.8c2.9-3.7,6.7-5.6,11.6-5.6c4.3,0,7.4,1.3,9.5,3.9c2.1,2.6,3.1,6.5,3.2,11.6v26.9H391v-26.6
	c0-2.4-0.5-4.1-1.5-5.1s-2.6-1.6-5-1.6c-3,0-5.3,1.4-6.8,4v29.3h-10.7v-41.6L377.2,155.3L377.2,155.3z"/>
<path class="st0" d="M420.1,176c0,3.7,0.7,6.6,2.2,8.7c1.5,2.1,3.5,3.1,6.1,3.1c3.3,0,5.7-1.2,7.1-3.7V167c-1.5-2.5-3.8-3.7-7-3.7
	c-2.6,0-4.7,1.1-6.1,3.2C420.9,168.6,420.1,171.8,420.1,176z M409.2,175.2c0-6.2,1.5-11.2,4.5-15.1c3-3.8,7-5.7,12-5.7
	c4.5,0,7.9,1.6,10.4,4.6l0.5-3.8h9.8v39.2c0,3.6-0.8,6.6-2.4,9.3s-3.9,4.6-6.8,6c-2.9,1.4-6.4,2.1-10.3,2.1c-3,0-5.9-0.6-8.7-1.8
	s-5-2.7-6.4-4.6l4.8-6.6c2.7,3,6,4.6,9.8,4.6c2.9,0,5.1-0.8,6.7-2.3s2.4-3.7,2.4-6.6v-2.1c-2.5,2.8-5.8,4.2-9.9,4.2
	c-4.9,0-8.8-1.9-11.9-5.7c-3-3.8-4.5-8.9-4.5-15.2V175.2L409.2,175.2z"/>
<path class="st0" d="M78.1,124.8c0-7.4,5.9-13.3,13.2-13.3h62.3V74.3H0V174c0,15.7,12.5,28.4,28,28.4h97.6c15.4,0,28-12.7,28-28.4
	v-35.9H91.2C84,138.2,78.1,132.2,78.1,124.8z"/>
<path class="st0" d="M153.6,28.4c0-15.7-12.5-28.4-28-28.4H28C12.5,0,0,12.7,0,28.4v19.3h153.6L153.6,28.4L153.6,28.4z"/>
</svg>
