<?xml version="1.0" encoding="utf-8"?>
<!-- Generator: Adobe Illustrator 24.2.0, SVG Export Plug-In . SVG Version: 6.00 Build 0)  -->
<svg version="1.1" id="Layer_1" xmlns="http://www.w3.org/2000/svg" xmlns:xlink="http://www.w3.org/1999/xlink" x="0px" y="0px"
	 viewBox="0 0 1000 1000" style="enable-background:new 0 0 1000 1000;" xml:space="preserve">
<style type="text/css">
	.st0{fill:#355A9F;}
</style>
<g>
	<path class="st0" d="M513.28,486.28h-35.71v36.9h-18.6V432.9h58.77v15.07h-40.18v23.31h35.71V486.28z"/>
	<path class="st0" d="M548.32,523.18h-18.6V432.9h18.6V523.18z"/>
	<path class="st0" d="M619.87,486.28h-35.71v36.9h-18.6V432.9h58.77v15.07h-40.18v23.31h35.71V486.28z"/>
	<path class="st0" d="M689.43,486.28h-35.71v36.9h-18.6V432.9h58.77v15.07h-40.18v23.31h35.71V486.28z"/>
	<path class="st0" d="M475.8,616.31v31.81h-18.6v-90.27h35.22c6.78,0,12.74,1.24,17.89,3.72c5.15,2.48,9.1,6.01,11.88,10.58
		c2.77,4.56,4.15,9.76,4.15,15.59c0,8.85-3.02,15.82-9.08,20.92c-6.06,5.1-14.44,7.66-25.14,7.66H475.8z M475.8,601.25h16.62
		c4.92,0,8.67-1.16,11.25-3.47c2.58-2.31,3.88-5.62,3.88-9.92c0-4.42-1.3-8-3.91-10.73c-2.6-2.73-6.2-4.14-10.79-4.21H475.8V601.25z
		"/>
	<path class="st0" d="M567.75,648.12c-0.83-1.62-1.42-3.62-1.79-6.01c-4.34,4.83-9.99,7.25-16.93,7.25c-6.57,0-12.01-1.9-16.33-5.7
		c-4.32-3.81-6.48-8.6-6.48-14.38c0-7.11,2.64-12.57,7.91-16.37c5.27-3.81,12.89-5.73,22.85-5.77h8.25v-3.84
		c0-3.1-0.8-5.58-2.38-7.44c-1.59-1.86-4.11-2.79-7.54-2.79c-3.02,0-5.38,0.73-7.1,2.17c-1.72,1.44-2.58,3.43-2.58,5.95h-17.92
		c0-3.89,1.2-7.48,3.6-10.79c2.4-3.3,5.79-5.9,10.17-7.78c4.38-1.88,9.29-2.82,14.75-2.82c8.26,0,14.82,2.07,19.69,6.23
		c4.85,4.16,7.29,9.99,7.29,17.52v29.08c0.04,6.36,0.93,11.18,2.66,14.45v1.05H567.75z M552.93,635.66c2.65,0,5.09-0.59,7.32-1.77
		c2.23-1.18,3.89-2.76,4.96-4.75v-11.53h-6.7c-8.97,0-13.74,3.1-14.32,9.3l-0.06,1.05c0,2.23,0.78,4.07,2.36,5.52
		C548.05,634.93,550.2,635.66,552.93,635.66z"/>
	<path class="st0" d="M631.4,597.84c-2.44-0.33-4.59-0.5-6.45-0.5c-6.78,0-11.22,2.29-13.33,6.88v43.9H593.7v-67.09h16.92l0.5,8
		c3.59-6.16,8.58-9.24,14.95-9.24c1.98,0,3.84,0.26,5.58,0.8L631.4,597.84z"/>
	<path class="st0" d="M664.39,621.21l-6.45,6.45v20.46h-17.92v-95.23h17.92v52.76l3.47-4.46l17.17-20.15h21.52L675.85,609
		l26.35,39.12h-20.58L664.39,621.21z"/>
	<path class="st0" d="M707.73,563.67c0-2.68,0.9-4.9,2.7-6.63c1.79-1.74,4.24-2.6,7.34-2.6c3.06,0,5.49,0.87,7.32,2.6
		c1.81,1.74,2.73,3.95,2.73,6.63c0,2.73-0.92,4.96-2.75,6.7c-1.84,1.74-4.27,2.6-7.29,2.6c-3.02,0-5.44-0.87-7.29-2.6
		C708.65,568.63,707.73,566.4,707.73,563.67z M726.76,648.12h-17.98v-67.09h17.98V648.12z"/>
	<path class="st0" d="M758.01,581.03l0.56,7.75c4.79-5.99,11.22-8.99,19.28-8.99c7.11,0,12.41,2.09,15.87,6.26
		c3.47,4.18,5.25,10.42,5.34,18.73v43.34h-17.92v-42.91c0-3.8-0.83-6.56-2.48-8.28c-1.65-1.72-4.4-2.57-8.24-2.57
		c-5.05,0-8.83,2.15-11.35,6.45v47.31h-17.91v-67.09H758.01z"/>
	<path class="st0" d="M810.03,614.08c0-10.29,2.45-18.58,7.34-24.86c4.9-6.28,11.51-9.42,19.81-9.42c7.36,0,13.08,2.52,17.17,7.56
		l0.75-6.32h16.24v64.85c0,5.87-1.33,10.97-4,15.32c-2.66,4.34-6.41,7.65-11.25,9.92c-4.83,2.27-10.5,3.41-16.99,3.41
		c-4.92,0-9.71-0.98-14.38-2.95c-4.68-1.96-8.21-4.49-10.6-7.59l7.94-10.91c4.46,5,9.88,7.5,16.25,7.5c4.75,0,8.45-1.27,11.1-3.81
		c2.65-2.54,3.97-6.15,3.97-10.82v-3.59c-4.14,4.67-9.57,7-16.31,7c-8.06,0-14.58-3.15-19.56-9.45c-4.98-6.31-7.47-14.67-7.47-25.08
		V614.08z M827.95,615.42c0,6.09,1.22,10.85,3.66,14.31c2.43,3.46,5.79,5.18,10.04,5.18c5.46,0,9.37-2.05,11.72-6.14v-28.26
		c-2.4-4.1-6.26-6.15-11.59-6.15c-4.31,0-7.68,1.76-10.14,5.28C829.18,603.16,827.95,608.42,827.95,615.42z"/>
	<path class="st0" d="M257.74,529.32c0-12.07,9.79-21.86,21.86-21.86h103.66v-60.84H127.76v163.34c0,25.7,20.83,46.53,46.53,46.53
		h162.42c25.7,0,46.53-20.83,46.53-46.53v-58.77H279.6C267.52,551.18,257.74,541.39,257.74,529.32z"/>
	<path class="st0" d="M383.25,371.3c0-25.7-20.83-46.53-46.53-46.53H174.3c-25.7,0-46.53,20.83-46.53,46.53v31.58h255.49V371.3z"/>
</g>
</svg>
